<svg width="80" height="80" viewBox="0 0 80 80" fill="none" xmlns="http://www.w3.org/2000/svg">
<path d="M51.4192 27.4002V22.6002C51.4254 22.264 51.3097 21.9363 51.0922 21.675C50.8747 21.4137 50.5695 21.2355 50.2302 21.1716L46.1642 20.3859C45.8988 20.3315 45.654 20.2066 45.4571 20.025C45.2602 19.8435 45.1188 19.6124 45.0487 19.3573C44.653 18.0923 44.1216 16.8713 43.4634 15.7145C43.3346 15.4973 43.2668 15.251 43.2668 15.0002C43.2668 14.7494 43.3346 14.5031 43.4634 14.2859L45.8854 10.8288C46.0777 10.5538 46.1653 10.222 46.1331 9.89079C46.101 9.55957 45.9511 9.24967 45.7092 9.01453L42.1423 5.62883C41.9035 5.39484 41.5888 5.24849 41.2517 5.21464C40.9145 5.18079 40.5758 5.26152 40.2928 5.44312L36.8434 7.68597C36.6203 7.81135 36.3671 7.87736 36.1095 7.87736C35.8518 7.87736 35.5987 7.81135 35.3755 7.68597C34.1599 7.03779 32.8753 6.52045 31.5444 6.14312C31.2832 6.07146 31.0475 5.93072 30.8636 5.73653C30.6796 5.54235 30.5545 5.30232 30.5023 5.04312L29.6362 1.14314C29.5714 0.832147 29.4021 0.551002 29.1549 0.344063C28.9077 0.137125 28.5968 0.0161731 28.2711 0.000290626H23.2658C22.9224 -0.00644924 22.5874 0.104223 22.3192 0.313043C22.051 0.521863 21.8665 0.815607 21.7979 1.14314L20.9759 5.10027C20.9237 5.35946 20.7986 5.59949 20.6146 5.79367C20.4306 5.98786 20.195 6.1286 19.9337 6.20026C18.6049 6.58314 17.3209 7.10024 16.1026 7.74311C15.8795 7.86849 15.6264 7.9345 15.3687 7.9345C15.111 7.9345 14.8579 7.86849 14.6348 7.74311L11.156 5.44312C10.8731 5.26152 10.5343 5.18079 10.1972 5.21464C9.86004 5.24849 9.54534 5.39484 9.30648 5.62883L5.81299 9.01453C5.57116 9.24967 5.42123 9.55957 5.38907 9.89079C5.35692 10.222 5.44455 10.5538 5.63685 10.8288L7.94138 14.1859C8.07021 14.4031 8.13803 14.6495 8.13803 14.9002C8.13803 15.151 8.07021 15.3973 7.94138 15.6145C7.28451 16.7969 6.75333 18.0414 6.3561 19.3288C6.28596 19.5838 6.14459 19.8149 5.94767 19.9965C5.75074 20.178 5.50598 20.3029 5.24053 20.3573L1.17458 21.143C0.838038 21.2098 0.536216 21.3894 0.321653 21.6504C0.10709 21.9114 -0.00662661 22.2374 0.000298617 22.5716V27.3716C-0.00662661 27.7058 0.10709 28.0318 0.321653 28.2928C0.536216 28.5538 0.838038 28.7334 1.17458 28.8001L5.24053 29.5859C5.50598 29.6402 5.75074 29.7652 5.94767 29.9467C6.14459 30.1283 6.28596 30.3594 6.3561 30.6144C6.77021 31.8887 7.31611 33.1188 7.98542 34.2858C8.11425 34.503 8.18207 34.7494 8.18207 35.0001C8.18207 35.2509 8.11425 35.4972 7.98542 35.7144L5.63685 39.1715C5.44455 39.4466 5.35692 39.7783 5.38907 40.1095C5.42123 40.4408 5.57116 40.7507 5.81299 40.9858L9.30648 44.3715C9.54534 44.6055 9.86004 44.7518 10.1972 44.7857C10.5343 44.8195 10.8731 44.7388 11.156 44.5572L14.6054 42.3144C14.8286 42.189 15.0817 42.123 15.3394 42.123C15.597 42.123 15.8501 42.189 16.0733 42.3144C17.2915 42.9572 18.5756 43.4743 19.9044 43.8572C20.1656 43.9289 20.4013 44.0696 20.5853 44.2638C20.7692 44.458 20.8943 44.698 20.9466 44.9572L21.7685 48.9143C21.8372 49.2419 22.0216 49.5356 22.2898 49.7444C22.558 49.9533 22.893 50.0639 23.2364 50.0572H28.2711C28.6145 50.0639 28.9495 49.9533 29.2177 49.7444C29.4859 49.5356 29.6704 49.2419 29.739 48.9143L30.5463 44.9572C30.5985 44.698 30.7236 44.458 30.9076 44.2638C31.0916 44.0696 31.3273 43.9289 31.5885 43.8572C32.9193 43.4799 34.2039 42.9625 35.4196 42.3144C35.6427 42.189 35.8958 42.123 36.1535 42.123C36.4112 42.123 36.6643 42.189 36.8874 42.3144L40.3369 44.5572C40.6198 44.7388 40.9586 44.8195 41.2957 44.7857C41.6328 44.7518 41.9475 44.6055 42.1864 44.3715L45.6799 40.9858C45.9262 40.7542 46.0816 40.4461 46.1192 40.1148C46.1567 39.7834 46.074 39.4498 45.8854 39.1715L43.5955 35.8144C43.4667 35.5972 43.3989 35.3509 43.3989 35.1001C43.3989 34.8493 43.4667 34.603 43.5955 34.3858C44.2585 33.2063 44.7899 31.9611 45.1808 30.6716C45.2509 30.4165 45.3923 30.1854 45.5892 30.0039C45.7861 29.8223 46.0309 29.6974 46.2964 29.643L50.2889 28.8001C50.6123 28.7258 50.9002 28.5468 51.1055 28.2925C51.3109 28.0382 51.4214 27.7236 51.4192 27.4002Z" fill="#FFC947"/>
<path d="M25.7322 39.2861C33.8389 39.2861 40.4107 32.8902 40.4107 25.0005C40.4107 17.1107 33.8389 10.7148 25.7322 10.7148C17.6254 10.7148 11.0536 17.1107 11.0536 25.0005C11.0536 32.8902 17.6254 39.2861 25.7322 39.2861Z" fill="#FFF9C4"/>
<path d="M63.1935 25.0435V17.1436H53.5056C36.7574 17.1436 25.0293 29.3578 25.0293 45.7148V65.7147H32.2365C31.4145 60.0005 28.2732 25.7149 63.1935 25.0435Z" fill="#26A69A"/>
<path d="M77.6341 36.1572L63.1905 25.043C28.2702 25.7144 31.4115 59.9999 32.2041 65.7142H32.3362V74.2856H66.0968L60.2254 45.7143L71.8067 48.5714C73.4067 48.9605 75.0999 48.7157 76.5145 47.8907C77.9292 47.0657 78.9495 45.728 79.3515 44.1714C79.4983 43.5714 79.6598 42.9715 79.8065 42.4C80.1043 41.2665 80.0575 40.0732 79.6719 38.965C79.2862 37.8568 78.5783 36.8814 77.6341 36.1572Z" fill="#055F5B"/>
<path d="M29.4019 74.2852C28.6233 74.2852 27.8766 74.5862 27.326 75.122C26.7755 75.6578 26.4662 76.3845 26.4662 77.1423C26.4662 77.9 26.7755 78.6268 27.326 79.1626C27.8766 79.6984 28.6233 79.9994 29.4019 79.9994H67.566C68.3446 79.9994 69.0913 79.6984 69.6419 79.1626C70.1925 78.6268 70.5018 77.9 70.5018 77.1423C70.5018 76.3845 70.1925 75.6578 69.6419 75.122C69.0913 74.5862 68.3446 74.2852 67.566 74.2852H29.4019Z" fill="#055F5B"/>
</svg>
