<svg width="80" height="80" viewBox="0 0 80 80" fill="none" xmlns="http://www.w3.org/2000/svg">
<path d="M15.7143 31.4286C24.393 31.4286 31.4286 24.393 31.4286 15.7143C31.4286 7.03553 24.393 0 15.7143 0C7.03553 0 0 7.03553 0 15.7143C0 24.393 7.03553 31.4286 15.7143 31.4286Z" fill="#FFC947"/>
<path d="M15.7143 28.5715C22.8151 28.5715 28.5715 22.8151 28.5715 15.7143C28.5715 8.61352 22.8151 2.85718 15.7143 2.85718C8.61352 2.85718 2.85718 8.61352 2.85718 15.7143C2.85718 22.8151 8.61352 28.5715 15.7143 28.5715Z" fill="#FFF9C4"/>
<path d="M16.4286 14.2857H15.0001C14.8106 14.2857 14.629 14.2104 14.495 14.0765C14.361 13.9425 14.2858 13.7609 14.2858 13.5714C14.2858 13.382 14.361 13.2003 14.495 13.0663C14.629 12.9324 14.8106 12.8571 15.0001 12.8571H18.5715C18.9504 12.8571 19.3137 12.7066 19.5817 12.4387C19.8496 12.1708 20.0001 11.8074 20.0001 11.4286C20.0001 11.0497 19.8496 10.6863 19.5817 10.4184C19.3137 10.1505 18.9504 9.99998 18.5715 9.99998H17.1429C17.1429 9.6211 16.9924 9.25774 16.7245 8.98983C16.4566 8.72192 16.0932 8.57141 15.7144 8.57141C15.3355 8.57141 14.9721 8.72192 14.7042 8.98983C14.4363 9.25774 14.2858 9.6211 14.2858 9.99998V10.0714C13.4178 10.2477 12.6463 10.7401 12.121 11.4532C11.5957 12.1663 11.3541 13.0491 11.4431 13.9303C11.5321 14.8115 11.9454 15.6282 12.6027 16.2219C13.26 16.8155 14.1144 17.1437 15.0001 17.1428H16.4286C16.6181 17.1428 16.7998 17.2181 16.9337 17.352C17.0677 17.486 17.1429 17.6677 17.1429 17.8571C17.1429 18.0466 17.0677 18.2282 16.9337 18.3622C16.7998 18.4962 16.6181 18.5714 16.4286 18.5714H12.8572C12.4783 18.5714 12.115 18.7219 11.8471 18.9898C11.5792 19.2577 11.4286 19.6211 11.4286 20C11.4286 20.3789 11.5792 20.7422 11.8471 21.0101C12.115 21.278 12.4783 21.4286 12.8572 21.4286H14.2858C14.2858 21.8074 14.4363 22.1708 14.7042 22.4387C14.9721 22.7066 15.3355 22.8571 15.7144 22.8571C16.0932 22.8571 16.4566 22.7066 16.7245 22.4387C16.9924 22.1708 17.1429 21.8074 17.1429 21.4286C18.0901 21.3338 18.9609 20.8667 19.5637 20.13C20.1665 19.3932 20.4519 18.4472 20.3572 17.5C20.2625 16.5528 19.7954 15.682 19.0586 15.0792C18.3219 14.4764 17.3758 14.191 16.4286 14.2857Z" fill="#FFC947"/>
<path d="M39.4859 75.5287C9.81452 64.6858 8.05737 30.6858 8.05737 23.343C8.05737 22.9641 8.20788 22.6007 8.47579 22.3328C8.7437 22.0649 9.10706 21.9144 9.48594 21.9144C20.2995 21.6219 30.7043 17.7195 39.0431 10.8287C39.3008 10.6112 39.6272 10.4918 39.9645 10.4918C40.3018 10.4918 40.6282 10.6112 40.8859 10.8287C49.2231 17.7224 59.6289 21.6252 70.4431 21.9144C70.822 21.9144 71.1853 22.0649 71.4532 22.3328C71.7211 22.6007 71.8717 22.9641 71.8717 23.343C71.8717 30.6858 70.1717 64.6858 40.4431 75.5287C40.1335 75.6388 39.7955 75.6388 39.4859 75.5287Z" fill="#26A69A"/>
<path d="M39.4147 69.3572C19.5861 60.7857 15.1289 39.5429 14.1004 28.7286C14.056 28.3537 14.1618 27.9765 14.3947 27.6793C14.6275 27.3822 14.9686 27.1894 15.3432 27.1429C23.9049 25.9975 32.072 22.8345 39.1718 17.9143C39.4123 17.7453 39.6992 17.6545 39.9932 17.6545C40.2872 17.6545 40.5741 17.7453 40.8147 17.9143C47.9293 22.8364 56.1107 25.9993 64.6861 27.1429C65.0499 27.1894 65.3818 27.3741 65.6132 27.6587C65.8445 27.9432 65.9576 28.3058 65.9289 28.6715C65.0147 39.4858 60.6004 60.7286 40.5718 69.3C40.3936 69.3898 40.1986 69.4413 39.9993 69.4512C39.8 69.461 39.6008 69.429 39.4147 69.3572Z" fill="#055F5B"/>
<path d="M38.5714 50C37.8149 49.9968 37.0905 49.6937 36.5571 49.1571L30.8429 43.4428C30.5565 43.1825 30.3261 42.8666 30.1655 42.5144C30.0049 42.1623 29.9175 41.7812 29.9087 41.3942C29.8999 41.0073 29.9697 40.6226 30.1141 40.2635C30.2584 39.9044 30.4742 39.5783 30.7484 39.3051C31.0225 39.032 31.3493 38.8173 31.709 38.6742C32.0686 38.5312 32.4535 38.4627 32.8404 38.4729C33.2273 38.4831 33.6081 38.5718 33.9597 38.7336C34.3113 38.8954 34.6263 39.127 34.8857 39.4143L38.5714 43.1L47.9857 33.7C48.5283 33.2065 49.2399 32.9407 49.9732 32.9574C50.7064 32.9742 51.4052 33.2722 51.9247 33.7899C52.4442 34.3076 52.7448 35.0053 52.7641 35.7385C52.7834 36.4717 52.5201 37.1842 52.0286 37.7286L40.6 49.1571C40.3342 49.4245 40.0181 49.6366 39.67 49.7813C39.3218 49.926 38.9484 50.0003 38.5714 50Z" fill="#26A69A"/>
<path d="M64.2857 80C72.9645 80 80 72.9645 80 64.2857C80 55.6069 72.9645 48.5714 64.2857 48.5714C55.6069 48.5714 48.5714 55.6069 48.5714 64.2857C48.5714 72.9645 55.6069 80 64.2857 80Z" fill="#FFC947"/>
<path d="M64.2857 77.1429C71.3865 77.1429 77.1429 71.3865 77.1429 64.2857C77.1429 57.1849 71.3865 51.4286 64.2857 51.4286C57.1849 51.4286 51.4286 57.1849 51.4286 64.2857C51.4286 71.3865 57.1849 77.1429 64.2857 77.1429Z" fill="#FFF9C4"/>
<path d="M64.9997 62.8571H63.5711C63.3817 62.8571 63.2 62.7819 63.0661 62.6479C62.9321 62.5139 62.8569 62.3323 62.8569 62.1428C62.8569 61.9534 62.9321 61.7717 63.0661 61.6377C63.2 61.5038 63.3817 61.4285 63.5711 61.4285H67.1426C67.5214 61.4285 67.8848 61.278 68.1527 61.0101C68.4206 60.7422 68.5711 60.3788 68.5711 60C68.5711 59.6211 68.4206 59.2577 68.1527 58.9898C67.8848 58.7219 67.5214 58.5714 67.1426 58.5714H65.714C65.714 58.1925 65.5635 57.8291 65.2956 57.5612C65.0277 57.2933 64.6643 57.1428 64.2854 57.1428C63.9065 57.1428 63.5432 57.2933 63.2753 57.5612C63.0074 57.8291 62.8569 58.1925 62.8569 58.5714C62.3878 58.6183 61.9327 58.7571 61.5173 58.9799C61.102 59.2027 60.7346 59.5052 60.4361 59.87C60.1376 60.2348 59.9139 60.6548 59.7778 61.1061C59.6416 61.5573 59.5957 62.031 59.6426 62.5C59.6895 62.969 59.8283 63.4241 60.0511 63.8395C60.2739 64.2549 60.5763 64.6223 60.9412 64.9207C61.306 65.2192 61.726 65.4429 62.1772 65.5791C62.6285 65.7152 63.1021 65.7612 63.5711 65.7143H64.9997C65.1892 65.7143 65.3708 65.7895 65.5048 65.9235C65.6387 66.0574 65.714 66.2391 65.714 66.4285C65.714 66.618 65.6387 66.7997 65.5048 66.9336C65.3708 67.0676 65.1892 67.1428 64.9997 67.1428H61.4283C61.0494 67.1428 60.686 67.2933 60.4181 67.5612C60.1502 67.8291 59.9997 68.1925 59.9997 68.5714C59.9997 68.9503 60.1502 69.3136 60.4181 69.5815C60.686 69.8495 61.0494 70 61.4283 70H62.8569C62.8569 70.3788 63.0074 70.7422 63.2753 71.0101C63.5432 71.278 63.9065 71.4285 64.2854 71.4285C64.6643 71.4285 65.0277 71.278 65.2956 71.0101C65.5635 70.7422 65.714 70.3788 65.714 70C66.6612 69.9052 67.532 69.4381 68.1348 68.7014C68.7376 67.9646 69.023 67.0186 68.9283 66.0714C68.8336 65.1242 68.3665 64.2534 67.6297 63.6506C66.893 63.0478 65.9469 62.7624 64.9997 62.8571Z" fill="#FFC947"/>
</svg>
