<svg width="80" height="80" viewBox="0 0 80 80" fill="none" xmlns="http://www.w3.org/2000/svg">
<path d="M15.7148 31.4286C24.3935 31.4286 31.4291 24.393 31.4291 15.7143C31.4291 7.03553 24.3935 0 15.7148 0C7.03601 0 0.000488281 7.03553 0.000488281 15.7143C0.000488281 24.393 7.03601 31.4286 15.7148 31.4286Z" fill="#FFC947"/>
<path d="M15.7131 28.5717C22.8139 28.5717 28.5702 22.8154 28.5702 15.7146C28.5702 8.61376 22.8139 2.85742 15.7131 2.85742C8.6123 2.85742 2.85596 8.61376 2.85596 15.7146C2.85596 22.8154 8.6123 28.5717 15.7131 28.5717Z" fill="#FFF9C4"/>
<path d="M16.4299 14.2856H15.0013C14.8119 14.2856 14.6302 14.2103 14.4962 14.0764C14.3623 13.9424 14.287 13.7607 14.287 13.5713C14.287 13.3818 14.3623 13.2002 14.4962 13.0662C14.6302 12.9323 14.8119 12.857 15.0013 12.857H18.5727C18.9516 12.857 19.315 12.7065 19.5829 12.4386C19.8508 12.1707 20.0013 11.8073 20.0013 11.4284C20.0013 11.0496 19.8508 10.6862 19.5829 10.4183C19.315 10.1504 18.9516 9.99986 18.5727 9.99986H17.1442C17.1442 9.62098 16.9936 9.25762 16.7257 8.98971C16.4578 8.7218 16.0945 8.57129 15.7156 8.57129C15.3367 8.57129 14.9733 8.7218 14.7054 8.98971C14.4375 9.25762 14.287 9.62098 14.287 9.99986V10.0713C13.419 10.2475 12.6475 10.74 12.1222 11.4531C11.5969 12.1662 11.3553 13.049 11.4444 13.9302C11.5334 14.8114 11.9466 15.6281 12.6039 16.2217C13.2612 16.8154 14.1156 17.1436 15.0013 17.1427H16.4299C16.6193 17.1427 16.801 17.218 16.9349 17.3519C17.0689 17.4859 17.1442 17.6676 17.1442 17.857C17.1442 18.0464 17.0689 18.2281 16.9349 18.3621C16.801 18.496 16.6193 18.5713 16.4299 18.5713H12.8584C12.4796 18.5713 12.1162 18.7218 11.8483 18.9897C11.5804 19.2576 11.4299 19.621 11.4299 19.9999C11.4299 20.3787 11.5804 20.7421 11.8483 21.01C12.1162 21.2779 12.4796 21.4284 12.8584 21.4284H14.287C14.287 21.8073 14.4375 22.1707 14.7054 22.4386C14.9733 22.7065 15.3367 22.857 15.7156 22.857C16.0945 22.857 16.4578 22.7065 16.7257 22.4386C16.9936 22.1707 17.1442 21.8073 17.1442 21.4284C18.0914 21.3337 18.9621 20.8666 19.5649 20.1298C20.1677 19.3931 20.4532 18.4471 20.3584 17.4999C20.2637 16.5527 19.7966 15.6819 19.0599 15.0791C18.3231 14.4763 17.3771 14.1909 16.4299 14.2856Z" fill="#FFC947"/>
<path d="M66.8586 53.3571C63.9557 59.2121 59.2136 63.9542 53.3586 66.8571C47.9612 69.5441 41.8794 70.5423 35.9063 69.7218C29.9331 68.9013 24.3458 66.3 19.8729 62.2571L18.7872 61.2143C18.43 60.8571 18.0872 60.5 17.7443 60.1286C13.7015 55.6556 11.1002 50.0683 10.2796 44.0952C9.45909 38.122 10.4574 32.0403 13.1443 26.6428C16.0472 20.7878 20.7893 16.0458 26.6443 13.1428C32.0417 10.4559 38.1235 9.45763 44.0966 10.2782C50.0698 11.0987 55.6571 13.7 60.13 17.7428L61.2157 18.7857C61.5729 19.1428 61.9157 19.5 62.2586 19.8714C66.3014 24.3443 68.9027 29.9317 69.7233 35.9048C70.5438 41.8779 69.5455 47.9597 66.8586 53.3571Z" fill="#055F5B"/>
<path d="M54.1165 28.014L62.2593 19.8711C61.9165 19.4997 61.5736 19.1426 61.2164 18.7854L60.1307 17.7426L51.9879 25.8854C43.5879 17.8997 34.1736 13.3426 26.645 13.1426C20.79 16.0455 16.048 20.7876 13.145 26.6426C13.345 34.1712 17.9022 43.5854 25.8879 51.9854L17.745 60.1283C18.0879 60.4997 18.4307 60.8569 18.7879 61.214L19.8736 62.2569L28.0022 54.1283C36.4022 62.1283 45.8307 66.6569 53.3593 66.8569C59.2143 63.9539 63.9564 59.2119 66.8593 53.3569C66.6593 45.8283 62.1022 36.414 54.1165 28.014ZM25.9736 16.1711C32.7736 16.1711 41.9736 20.4569 49.8736 27.9997L40.0022 37.8712L19.9164 17.8712C21.7192 16.7095 23.8297 16.1172 25.9736 16.1711ZM17.7879 19.914L37.8736 39.9997L28.0164 49.8569C17.9307 39.2283 13.545 26.2426 17.7879 19.914ZM30.145 51.9854L40.0022 42.1283L60.0879 62.214C53.7593 66.4569 40.7736 62.0711 30.145 51.9854ZM42.1307 39.9997L51.9879 30.1426C62.0736 40.7712 66.4593 53.7569 62.2164 60.1426L42.1307 39.9997Z" fill="#21877B"/>
<path d="M64.2851 79.9999C72.9638 79.9999 79.9994 72.9643 79.9994 64.2856C79.9994 55.6068 72.9638 48.5713 64.2851 48.5713C55.6063 48.5713 48.5708 55.6068 48.5708 64.2856C48.5708 72.9643 55.6063 79.9999 64.2851 79.9999Z" fill="#FFC947"/>
<path d="M64.2873 77.143C71.3881 77.143 77.1445 71.3867 77.1445 64.2859C77.1445 57.185 71.3881 51.4287 64.2873 51.4287C57.1865 51.4287 51.4302 57.185 51.4302 64.2859C51.4302 71.3867 57.1865 77.143 64.2873 77.143Z" fill="#FFF9C4"/>
<path d="M65.0004 62.8569H63.5719C63.3824 62.8569 63.2008 62.7816 63.0668 62.6477C62.9328 62.5137 62.8576 62.332 62.8576 62.1426C62.8576 61.9531 62.9328 61.7715 63.0668 61.6375C63.2008 61.5035 63.3824 61.4283 63.5719 61.4283H67.1433C67.5222 61.4283 67.8855 61.2778 68.1535 61.0099C68.4214 60.742 68.5719 60.3786 68.5719 59.9997C68.5719 59.6208 68.4214 59.2575 68.1535 58.9896C67.8855 58.7217 67.5222 58.5711 67.1433 58.5711H65.7147C65.7147 58.1923 65.5642 57.8289 65.2963 57.561C65.0284 57.2931 64.665 57.1426 64.2862 57.1426C63.9073 57.1426 63.5439 57.2931 63.276 57.561C63.0081 57.8289 62.8576 58.1923 62.8576 58.5711C62.3886 58.6181 61.9334 58.7569 61.518 58.9797C61.1027 59.2025 60.7353 59.5049 60.4368 59.8697C60.1383 60.2345 59.9146 60.6546 59.7785 61.1058C59.6423 61.5571 59.5964 62.0307 59.6433 62.4997C59.6902 62.9687 59.829 63.4239 60.0518 63.8393C60.2746 64.2546 60.5771 64.622 60.9419 64.9205C61.3067 65.219 61.7267 65.4427 62.178 65.5788C62.6292 65.715 63.1029 65.7609 63.5719 65.714H65.0004C65.1899 65.714 65.3716 65.7893 65.5055 65.9232C65.6395 66.0572 65.7147 66.2389 65.7147 66.4283C65.7147 66.6177 65.6395 66.7994 65.5055 66.9334C65.3716 67.0673 65.1899 67.1426 65.0004 67.1426H61.429C61.0501 67.1426 60.6868 67.2931 60.4189 67.561C60.151 67.8289 60.0004 68.1923 60.0004 68.5711C60.0004 68.95 60.151 69.3134 60.4189 69.5813C60.6868 69.8492 61.0501 69.9997 61.429 69.9997H62.8576C62.8576 70.3786 63.0081 70.742 63.276 71.0099C63.5439 71.2778 63.9073 71.4283 64.2862 71.4283C64.665 71.4283 65.0284 71.2778 65.2963 71.0099C65.5642 70.742 65.7147 70.3786 65.7147 69.9997C66.6619 69.905 67.5327 69.4379 68.1355 68.7011C68.7383 67.9644 69.0237 67.0184 68.929 66.0711C68.8343 65.1239 68.3672 64.2532 67.6304 63.6504C66.8937 63.0476 65.9476 62.7621 65.0004 62.8569Z" fill="#FFC947"/>
<path d="M66.0992 25.1862C62.3849 32.1291 55.6277 40.5434 48.0849 48.0434C41.7184 54.6135 34.5641 60.3714 26.7849 65.1862C26.2277 65.5148 25.6849 65.8148 25.1563 66.1005C22.3561 67.8245 19.1901 68.8667 15.9134 69.1434C15.2392 69.1809 14.5642 69.0827 13.9287 68.8545C13.2931 68.6263 12.7098 68.2727 12.2134 67.8148C9.98488 65.5719 10.5706 61.1291 13.9277 54.8862C14.4651 55.8324 15.0615 56.7437 15.7134 57.6148C13.4134 62.3291 13.4134 64.9291 14.2849 65.7577C15.1563 66.5862 17.7134 66.5862 22.4277 64.3291C23.342 63.8862 24.3277 63.3577 25.3992 62.7291C32.9424 58.0399 39.8802 52.4407 46.0563 46.0577C55.3992 36.7148 61.4277 28.2862 64.2849 22.3862C66.3277 18.2005 66.7849 15.2434 65.7134 14.2434C64.642 13.2434 62.2849 13.4148 57.5706 15.6719C56.6903 15.019 55.7694 14.4225 54.8134 13.8862C61.042 10.5291 65.4992 9.94337 67.742 12.1719C69.9849 14.4005 69.1992 19.4005 66.0992 25.1862Z" fill="#E4E9EB"/>
</svg>
