<svg width="140" height="35" viewBox="0 0 140 35" fill="none" xmlns="http://www.w3.org/2000/svg">
<path d="M33.5295 34.5C33.5295 15.8 18.4412 0.5 0 0.5C0 0.5 5.9874 21.6286 0 34.5C13.1723 34.5 33.5295 34.5 33.5295 34.5Z" fill="#FFC947"/>
<path d="M37.9999 34.5C37.9999 22.0333 27.9411 11.8333 15.647 11.8333C15.647 11.8333 19.6386 25.919 15.647 34.5C24.4285 34.5 37.9999 34.5 37.9999 34.5Z" fill="#2DD4BF"/>
<path d="M66.1139 33C68.1937 33 70.0169 32.6238 71.5834 31.8713C73.15 31.1188 74.379 30.0841 75.2703 28.7672C76.1616 27.4504 76.6073 25.9319 76.6073 24.212C76.6073 20.2076 74.2034 17.4395 69.3956 15.9077L63.8451 14.1743C62.7647 13.8249 61.9409 13.3411 61.3737 12.723C60.8335 12.078 60.5634 11.339 60.5634 10.5059C60.5634 9.40399 60.9821 8.51712 61.8194 7.84525C62.6837 7.14651 63.8181 6.79714 65.2226 6.79714C66.7892 6.79714 68.1667 7.2137 69.3551 8.04681C70.5436 8.85306 71.4349 10.0087 72.0291 11.5137L76.5668 9.49805C75.7565 7.24057 74.3384 5.42653 72.3127 4.05592C70.314 2.68531 67.9506 2 65.2226 2C63.2509 2 61.4952 2.37625 59.9557 3.12874C58.4431 3.85436 57.2547 4.8756 56.3904 6.19246C55.5531 7.50932 55.1344 9.02774 55.1344 10.7477C55.1344 12.7096 55.7286 14.4161 56.9171 15.8674C58.1055 17.2917 59.8746 18.3801 62.2245 19.1326L68.0181 20.987C69.0715 21.3364 69.8548 21.7932 70.368 22.3576C70.9082 22.922 71.1783 23.6476 71.1783 24.5345C71.1783 25.6363 70.7326 26.5232 69.8413 27.1951C68.977 27.8669 67.8291 28.2029 66.3975 28.2029C64.6689 28.2029 63.1158 27.7191 61.7383 26.7516C60.3608 25.7573 59.3074 24.4001 58.5782 22.6801L54 24.6554C54.5402 26.3216 55.391 27.7863 56.5524 29.0494C57.7409 30.2857 59.1454 31.2531 60.766 31.9519C62.4136 32.6506 64.1962 33 66.1139 33Z" fill="white"/>
<path d="M87.6102 33C90.4733 33 92.7691 32.0594 94.4977 30.1782V32.5163H99.5216V17.9233C99.5216 16.3914 99.1299 15.0342 98.3466 13.8518C97.5634 12.6693 96.483 11.7555 95.1055 11.1105C93.755 10.4387 92.1749 10.1027 90.3652 10.1027C88.1504 10.1027 86.1787 10.6268 84.4501 11.6749C82.7214 12.723 81.533 14.1071 80.8848 15.827L85.2198 17.9233C85.625 16.9289 86.2597 16.1361 87.124 15.5449C87.9884 14.9267 89.0012 14.6177 90.1626 14.6177C91.3781 14.6177 92.3505 14.9402 93.0797 15.5852C93.836 16.2033 94.2141 16.9827 94.2141 17.9233V18.6489L87.6507 19.697C85.0578 20.127 83.1401 20.9467 81.8976 22.156C80.6552 23.3654 80.0339 24.8838 80.0339 26.7113C80.0339 28.6463 80.7227 30.1782 82.1002 31.3069C83.4777 32.4356 85.3144 33 87.6102 33ZM85.544 26.5098C85.544 24.9779 86.5838 24.0104 88.6636 23.6073L94.2141 22.6801V23.567C94.2141 25.072 93.6874 26.3485 92.6341 27.3966C91.6077 28.4447 90.2572 28.9688 88.5826 28.9688C87.6912 28.9688 86.962 28.7538 86.3948 28.3238C85.8276 27.8669 85.544 27.2622 85.544 26.5098Z" fill="white"/>
<path d="M104.427 32.5163H109.734V20.3017C109.734 18.6355 110.194 17.3455 111.112 16.4317C112.057 15.4911 113.273 15.0208 114.758 15.0208H116.663V10.3446H115.366C114.016 10.3446 112.827 10.5865 111.801 11.0702C110.774 11.554 109.978 12.4274 109.41 13.6905V10.5865H104.427V32.5163Z" fill="white"/>
<path d="M119.581 32.5163H124.888V25.8244L127.724 22.7607L133.923 32.5163H140L131.694 19.4148L139.838 10.5865H133.234L124.888 19.2939V2H119.581V32.5163Z" fill="white"/>
</svg>
